<svg width="40" height="47" viewBox="0 0 40 47" fill="none" xmlns="http://www.w3.org/2000/svg">
<path d="M24.8152 23.6642C25.3344 22.788 25.8711 21.882 26.4012 20.9478C28.1754 17.8222 28.501 14.6728 27.3692 11.587C25.0855 5.3608 17.4515 1.56724 15.6842 0.96197L14.4415 0.53598L12.5019 4.52327L13.4379 5.30909C13.4483 5.31772 14.488 6.25129 14.5573 7.66654C14.6165 8.87466 13.972 10.1802 12.6422 11.5471C11.7188 12.496 10.7053 13.4136 9.63221 14.3849C5.1173 18.4709 0 23.1035 0 31.8672C0 31.9875 0.00110135 32.1072 0.00330409 32.2261C0.0360239 34.16 0.440199 36.0682 1.19262 37.8412C1.94503 39.6141 3.03087 41.2168 4.38775 42.5572C7.11243 45.2806 10.7657 46.8007 14.5666 46.7924H23.2611L22.1879 44.5541C17.8271 35.4589 20.911 30.2539 24.8152 23.6642ZM14.5666 43.688C8.31717 43.688 3.13918 38.5203 3.02363 32.1686C3.02187 32.0686 3.02095 31.9681 3.02089 31.8672C3.02089 24.5059 7.39703 20.5443 11.6291 16.7135C12.6901 15.7531 13.7873 14.7598 14.7783 13.7413C16.7375 11.7279 17.6783 9.63127 17.5744 7.50986C17.5291 6.61083 17.2969 5.73222 16.8934 4.93316C19.5216 6.40884 23.2678 9.20693 24.5426 12.6824C25.3491 14.8812 25.1036 17.0732 23.792 19.384C23.2761 20.293 22.7467 21.1862 22.235 22.0501C18.489 28.3724 14.9355 34.3691 18.5106 43.688H14.5666Z" fill="white"/>
<path d="M39.6457 31.7677C39.6206 31.6652 39.5943 31.5622 39.567 31.4587C38.477 27.3519 32.4436 22.0714 31.7593 21.4828L30.3851 20.301L29.4839 21.8928C27.4304 25.5212 25.6681 28.8305 24.8998 32.585C24.0238 36.8666 24.6135 41.2182 26.7029 45.8886L27.107 46.7924H28.134C29.9427 46.7978 31.7285 46.3763 33.3537 45.5606C34.979 44.7448 36.4003 43.5565 37.5082 42.0872C38.6093 40.65 39.3746 38.9722 39.7452 37.1831C40.1158 35.3939 40.0818 33.5412 39.6457 31.7677V31.7677ZM35.1257 40.1772C34.3936 41.1486 33.4766 41.9566 32.4308 42.5521C31.3849 43.1475 30.232 43.5179 29.0424 43.6406C26.0648 36.2772 27.8217 31.2582 31.1787 25.0998C33.4106 27.2336 36.1306 30.3085 36.6525 32.2751C36.6745 32.3581 36.6955 32.4407 36.7156 32.5229C37.0384 33.8387 37.0629 35.2131 36.7872 36.5402C36.5116 37.8672 35.9431 39.1115 35.1257 40.1772V40.1772Z" fill="white"/>
</svg>
